<svg width="83" height="67" viewBox="0 0 83 67" fill="none" xmlns="http://www.w3.org/2000/svg">
<path d="M31.2547 24.9879C32.7911 24.0603 34.4433 23.3356 36.1246 22.8718L37.1392 18.0309L45.3136 17.886L46.5021 22.6689C48.2123 23.1037 49.8646 23.7414 51.4589 24.611L55.5751 21.9152L61.4595 27.5967L58.9086 31.7999C59.8362 33.3362 60.5609 34.9885 61.0247 36.6698L65.8656 37.6843L66.0105 45.8588L61.2276 47.0472C60.7928 48.7575 60.1551 50.4098 59.2855 52.0041L61.9813 56.1203L56.2998 62.0047L52.0966 59.4538C50.5603 60.3814 48.908 61.1061 47.2268 61.5699L46.2122 66.4108L38.0378 66.5557L36.8493 61.7728C35.139 61.338 33.4868 60.7003 31.8925 59.8307L27.7763 62.5265L21.8918 56.845L24.4427 52.6418C23.5151 51.1055 22.7904 49.4532 22.3266 47.7719L17.4858 46.7574L17.3408 38.5829L22.1237 37.3945C22.5585 35.6842 23.1963 34.0319 24.0659 32.4376L21.3701 28.3214L27.0516 22.437L31.2547 24.9879ZM35.6318 35.8581C32.2693 39.3366 32.3563 44.8732 35.8637 48.2357C39.3422 51.5983 44.8788 51.5113 48.2413 48.0038C51.6038 44.5253 51.5169 38.9888 48.0094 35.6262C44.5309 32.2637 38.9654 32.3797 35.6318 35.8581Z" fill="#0059F7"/>
<path d="M69.9234 2.55159C70.7061 2.40666 71.5177 2.40666 72.3004 2.46463L73.5178 0.638428L76.9094 1.91387L76.6195 4.08792C77.2572 4.55172 77.8369 5.07349 78.3587 5.71121L80.5038 5.2764L82.0111 8.58096L80.2719 9.91437C80.4168 10.697 80.4168 11.5087 80.3588 12.2913L82.1851 13.5088L80.9096 16.9003L78.7356 16.6104C78.2718 17.2482 77.75 17.8279 77.1123 18.3497L77.5471 20.4947L74.2425 22.0021L72.9091 20.2628C72.1264 20.4078 71.3148 20.4078 70.5321 20.3498L69.3147 22.176L65.9232 20.9006L66.213 18.7265C65.5753 18.2627 64.9956 17.741 64.4738 17.1032L62.3287 17.538L60.8214 14.2335L62.5606 12.9001C62.4157 12.1174 62.4157 11.3058 62.4737 10.5231L60.6475 9.30564L61.9229 5.91412L64.097 6.204C64.5608 5.56628 65.0825 4.98653 65.7202 4.46476L65.2854 2.31969L68.59 0.812353L69.9234 2.55159ZM69.9524 7.74032C67.9813 8.63893 67.1406 10.9289 68.0102 12.9001C68.9089 14.8712 71.1989 15.7118 73.17 14.8422C75.1411 13.9436 75.9818 11.6536 75.1121 9.68247C74.2135 7.71134 71.8945 6.8707 69.9524 7.74032Z" fill="#CDDFFF"/>
<path d="M4.26752 8.00118C4.76031 7.5084 5.31106 7.10257 5.9198 6.78371L5.86182 4.87055L8.90549 4.08789L9.77511 5.79814C10.4418 5.79814 11.1375 5.91409 11.8042 6.08802L13.1087 4.69662L15.8335 6.29093L15.2537 8.11713C15.7465 8.60991 16.1523 9.16067 16.4712 9.76941L18.3843 9.71143L19.167 12.7551L17.4568 13.6247C17.4568 14.2914 17.3408 14.9871 17.1669 15.6538L18.5583 16.9583L16.964 19.6831L15.1378 19.1033C14.645 19.5961 14.0942 20.0019 13.4855 20.3208L13.5435 22.234L10.4998 23.0166L9.63018 21.3064C8.96347 21.3064 8.26777 21.1904 7.60106 21.0165L6.29663 22.4079L3.57182 20.8136L4.15157 18.9874C3.65879 18.4946 3.25296 17.9438 2.9341 17.3351L1.02094 17.3931L0.238281 14.3494L1.94853 13.4798C1.94853 12.8131 2.06448 12.1174 2.23841 11.4507L0.847015 10.1462L2.44132 7.42143L4.26752 8.00118ZM6.87638 11.6826C5.9198 13.2769 6.44157 15.364 8.06486 16.3205C9.65916 17.2771 11.7463 16.7554 12.7028 15.1321C13.6594 13.5378 13.1376 11.4507 11.5144 10.4941C9.92005 9.5665 7.83296 10.0883 6.87638 11.6826Z" fill="#E8E8E8"/>
</svg>
